<svg width="271" height="249" viewBox="0 0 271 249" fill="none" xmlns="http://www.w3.org/2000/svg">
<path d="M174.231 0C153.637 0 136.162 2.67949 121.809 8.03685C94.8966 17.9638 73.2501 36.9511 56.8681 64.9985C47.3512 79.8101 36.8988 107.029 25.5095 146.658C21.687 157.058 17.1617 166.315 11.9352 174.43C3.97835 182.151 0 187.508 0 190.502C0 194.52 3.51126 196.884 10.5319 197.593C21.9207 197.593 34.7133 189.675 48.9103 173.839C56.5552 164.7 65.8782 151.11 76.8774 133.069C82.1819 122.275 92.8302 108.487 108.821 91.7061C131.21 72.2463 152.661 62.5159 173.177 62.5159H173.646C187.999 63.6977 195.177 68.0708 195.177 75.6341V78.588C195.177 84.9696 186.01 97.7731 167.679 116.997C149.425 132.596 140.297 146.028 140.297 157.294V159.303C140.297 168.6 148.605 181.875 165.221 199.129C178.95 211.341 191.237 220.401 202.08 226.31C223.064 237.497 245.687 245.061 269.947 249H271C254.384 232.534 242.721 219.613 236.013 210.238C210.426 175.257 197.632 147.841 197.632 127.987C197.632 126.073 194.427 122.464 196.153 119.11C197.854 115.839 202.751 114.633 205.37 113.738C246.948 98.9264 269.478 80.2818 269.478 61.4522C269.478 49.7133 262.496 36.9503 248.533 23.163C229.499 7.72117 204.732 0 174.231 0V0Z" fill="url(#paint0_linear_321_670)"/>
<path d="M121.809 8.03707C94.8966 17.9639 73.2501 36.9513 56.8681 64.9987C47.3512 79.8103 36.8984 107.03 25.5095 146.658C21.687 157.058 17.1617 166.315 11.9352 174.43C3.97835 182.151 0 187.508 0 190.502C0 194.52 3.51126 196.884 10.5319 197.593C21.9207 197.593 34.7128 189.675 48.9103 173.839C56.5552 164.7 65.8782 151.111 76.8774 133.069C82.1819 122.275 92.8302 108.488 108.821 91.7064C131.21 72.2465 152.661 62.5162 173.177 62.5162H173.646C187.999 63.6979 195.083 69.1115 195.177 75.6343C195.207 77.7908 195.176 79.9127 194.48 82.1385C195.909 78.8917 197.355 70.6365 197.798 67.0247C198.672 59.8928 198.364 52.1139 197.386 46.0791C196.41 40.0443 194.764 35.7553 192.142 31.5159C189.521 27.2765 185.924 23.0862 181.914 19.6447C177.905 16.2032 173.485 13.5104 169.269 11.3657C165.054 9.22099 161.044 7.62461 156.469 6.37762C154.261 5.77575 146.426 4.87586 138.504 5.26741C131.35 5.62107 124.068 7.19327 121.808 8.03707H121.809Z" fill="url(#paint1_linear_321_670)"/>
<path d="M201.027 115.259C189.048 119.695 187.656 120.002 182.547 122.452C176.258 125.467 168.663 128.993 162.647 132.943C156.632 136.893 152.196 141.266 148.943 145.498C145.69 149.73 143.618 153.821 142.513 157.407C141.694 160.067 141.408 162.455 141.449 165.794C144.234 174.445 152.143 185.549 165.221 199.13C178.95 211.341 191.237 220.401 202.08 226.31C223.064 237.498 245.687 245.061 269.947 249H271C254.384 232.534 242.311 219.904 236.013 210.238C228.197 198.241 186.965 144.308 200.21 115.561L201.027 115.259Z" fill="url(#paint2_linear_321_670)"/>
<defs>
<linearGradient id="paint0_linear_321_670" x1="4.51902" y1="26.0797" x2="15.6696" y2="124.309" gradientUnits="userSpaceOnUse">
<stop stop-color="#F5CE28"/>
<stop offset="1" stop-color="#F98007"/>
</linearGradient>
<linearGradient id="paint1_linear_321_670" x1="10.5319" y1="197.593" x2="191.504" y2="0.868291" gradientUnits="userSpaceOnUse">
<stop stop-color="#56ADDF"/>
<stop offset="0.295802" stop-color="#2990CF"/>
<stop offset="0.672096" stop-color="#3686D6"/>
<stop offset="0.876423" stop-color="#2A63A9"/>
</linearGradient>
<linearGradient id="paint2_linear_321_670" x1="156.629" y1="133.007" x2="267.409" y2="252.334" gradientUnits="userSpaceOnUse">
<stop stop-color="#B41F1D"/>
<stop offset="0.416199" stop-color="#D82E2A"/>
<stop offset="0.817922" stop-color="#E84636"/>
</linearGradient>
</defs>
</svg>
